<svg width="60" height="60" viewBox="0 0 60 60" fill="none" xmlns="http://www.w3.org/2000/svg">
<g id="chat 1" clip-path="url(#clip0_13_6278)">
<g id="Group">
<g id="Group_2">
<path id="Vector" d="M52.0963 22.3993H24.2057C23.7203 22.3993 23.3268 22.7928 23.3268 23.2782C23.3268 23.7636 23.7203 24.1571 24.2057 24.1571H52.0963C52.5817 24.1571 52.9752 23.7636 52.9752 23.2782C52.9752 22.7928 52.5817 22.3993 52.0963 22.3993Z" fill="#7B3B96"/>
<path id="Vector_2" d="M52.0963 29.118H24.2057C23.7203 29.118 23.3268 29.5116 23.3268 29.9969C23.3268 30.4823 23.7203 30.8759 24.2057 30.8759H52.0963C52.5817 30.8759 52.9752 30.4823 52.9752 29.9969C52.9752 29.5116 52.5817 29.118 52.0963 29.118Z" fill="#7B3B96"/>
<path id="Vector_3" d="M52.0963 35.8368H24.2057C23.7203 35.8368 23.3268 36.2303 23.3268 36.7157C23.3268 37.2011 23.7203 37.5946 24.2057 37.5946H52.0963C52.5817 37.5946 52.9752 37.2011 52.9752 36.7157C52.9752 36.2303 52.5817 35.8368 52.0963 35.8368Z" fill="#7B3B96"/>
<path id="Vector_4" d="M54.8881 14.7128H21.4139C18.5952 14.7128 16.302 17.0059 16.302 19.8247V40.8736C16.302 43.6923 18.5951 45.9855 21.4139 45.9855H44.8761C45.127 45.9855 45.3601 46.0984 45.5158 46.2954L53.0925 55.8875C53.3911 56.2656 53.8268 56.4716 54.283 56.4716C54.4526 56.4716 54.6251 56.4431 54.7943 56.3843C55.4186 56.1675 55.8219 55.6004 55.8219 54.9396V45.8982C58.192 45.4555 60 43.3601 60 40.8736V19.8246C60 17.0059 57.7069 14.7128 54.8881 14.7128ZM58.2422 40.8736C58.2422 42.699 56.7571 44.2031 54.9317 44.2263C54.4507 44.2325 54.064 44.6242 54.064 45.1052V54.2816L46.8952 45.2058C46.4043 44.5841 45.6683 44.2276 44.8761 44.2276H21.4139C19.5645 44.2276 18.0598 42.7229 18.0598 40.8735V19.8246C18.0598 17.9751 19.5643 16.4705 21.4139 16.4705H54.8881C56.7375 16.4705 58.2422 17.9751 58.2422 19.8246V40.8736Z" fill="#7B3B96"/>
<path id="Vector_5" d="M12.9485 29.2454C12.3473 29.3307 11.809 29.6402 11.4326 30.1167L5.39496 37.7604V30.0997C5.39496 29.6187 5.00824 29.227 4.5273 29.2208C3.00023 29.2014 1.75781 27.9431 1.75781 26.4159V8.09239C1.75781 6.54516 3.01664 5.28633 4.56387 5.28633H33.7041C35.2513 5.28633 36.5101 6.54516 36.5101 8.09239V11.4829C36.5101 11.9682 36.9036 12.3618 37.389 12.3618C37.8744 12.3618 38.2679 11.9682 38.2679 11.4829V8.09239C38.2679 5.57591 36.2205 3.52852 33.7041 3.52852H4.56387C2.04738 3.52852 0 5.57591 0 8.09239V26.4159C0 28.6035 1.56691 30.4516 3.63727 30.8836V38.6609C3.63727 39.2852 4.01836 39.8211 4.60828 40.026C4.76824 40.0815 4.93113 40.1085 5.09144 40.1085C5.52234 40.1085 5.93426 39.9137 6.21633 39.5566L12.8121 31.2063C12.9073 31.0858 13.0436 31.0075 13.1957 30.9858C13.6762 30.9176 14.0106 30.4726 13.9423 29.992C13.8741 29.5115 13.4298 29.1769 12.9485 29.2454Z" fill="#7B3B96"/>
</g>
</g>
</g>
<defs>
<clipPath id="clip0_13_6278">
<rect width="60" height="60" fill="white"/>
</clipPath>
</defs>
</svg>
