<svg width="63" height="60" viewBox="0 0 63 60" fill="none" xmlns="http://www.w3.org/2000/svg">
<g id="Group 62">
<g id="Group">
<path id="Vector" d="M51.0882 17.1275L51.0884 17.1277C56.5145 20.4349 59.8847 26.4138 59.8847 32.7261L59.8847 32.7274C59.8866 33.5253 59.2387 34.1741 58.4393 34.1741C57.6402 34.1741 56.9913 33.5253 56.9913 32.7261C56.9913 27.4099 54.151 22.3841 49.5802 19.6008L49.3201 20.0279L49.5806 19.6011C48.8965 19.1836 48.6807 18.2938 49.0976 17.6105C49.5151 16.9264 50.4049 16.7106 51.0882 17.1275Z" fill="#7B3B96" stroke="white"/>
<path id="Vector_2" d="M50.6473 34.8235C49.8482 34.8235 49.1994 34.1747 49.1994 33.3756C49.1994 28.445 45.1886 24.4343 40.2581 24.4343H22.0769C17.1464 24.4343 13.1357 28.445 13.1357 33.3756C13.1357 34.1747 12.4868 34.8235 11.6877 34.8235C10.8885 34.8235 10.2397 34.1747 10.2397 33.3756C10.2397 26.8493 15.5507 21.5383 22.0769 21.5383H40.2581C46.7843 21.5383 52.0953 26.8493 52.0953 33.3756C52.0953 34.1747 51.4465 34.8235 50.6473 34.8235Z" fill="#7B3B96" stroke="white"/>
<path id="Vector_3" d="M54.1767 46.2127H53.8265H44.3359C43.5368 46.2127 42.8879 46.8615 42.8879 47.6607C42.8879 48.4598 43.5368 49.1087 44.3359 49.1087H55.1927C55.8009 49.1087 56.3453 48.7282 56.5539 48.1573L54.1767 46.2127ZM54.1767 46.2127L54.2964 45.8836L58.0754 35.4944L58.3195 34.8235H57.6056H4.72689H4.01296L4.25701 35.4944L8.0361 45.8836L8.1558 46.2127H8.50597H17.9991C18.7983 46.2127 19.4471 46.8615 19.4471 47.6607C19.4471 48.4598 18.7983 49.1087 17.9991 49.1087H7.14239C6.53431 49.1087 5.98977 48.7284 5.78118 48.1547L0.586969 33.8707M54.1767 46.2127L0.586969 33.8707M0.586969 33.8707C0.586904 33.8705 0.586839 33.8703 0.586773 33.8701C0.426207 33.4246 0.490565 32.9306 0.762341 32.5432L0.762628 32.5428C1.03232 32.1575 1.47394 31.9275 1.94776 31.9275H60.3873C60.8609 31.9275 61.3021 32.1572 61.5717 32.5444L61.5734 32.5467C61.844 32.9306 61.909 33.4265 61.7484 33.8725C61.7483 33.8727 61.7482 33.873 61.7481 33.8733L56.5541 48.1568L0.586969 33.8707Z" fill="#7B3B96" stroke="white"/>
</g>
<path id="Vector_4" d="M40.7757 57.8299L40.7757 57.83C40.6541 58.6191 41.1965 59.3587 41.986 59.4804L40.7757 57.8299ZM40.7757 57.8299L43.0275 43.1914L43.1162 42.6154M40.7757 57.8299L43.1162 42.6154M43.1162 42.6154H42.5334M43.1162 42.6154H42.5334M42.5334 42.6154H19.8017H19.2189M42.5334 42.6154H19.2189M19.2189 42.6154L19.3075 43.1914M19.2189 42.6154L19.3075 43.1914M19.3075 43.1914L21.5594 57.8298C21.5594 57.8298 21.5594 57.8299 21.5594 57.8299C21.681 58.6215 21.1388 59.3587 20.3489 59.4804L20.3489 59.4804M19.3075 43.1914L20.3489 59.4804M20.3489 59.4804L20.3442 59.4811M20.3489 59.4804L20.3442 59.4811M20.3442 59.4811C19.5613 59.6094 18.8188 59.0653 18.6987 58.2713L18.6985 58.27M20.3442 59.4811L18.6985 58.27M18.6985 58.27L16.1013 41.388M18.6985 58.27L16.1013 41.388M43.6363 58.2738L43.6365 58.2726L46.2337 41.391L43.6363 58.2738ZM43.6363 58.2738C43.5287 58.9849 42.9125 59.4979 42.2087 59.4979C42.1368 59.4979 42.0635 59.4923 41.9861 59.4804L43.6363 58.2738ZM16.1013 41.388C16.1013 41.3879 16.1013 41.3879 16.1013 41.3878M16.1013 41.388L16.1013 41.3878M16.1013 41.3878C16.0373 40.969 16.158 40.5424 16.4326 40.2237C16.7091 39.9026 17.1086 39.7194 17.5316 39.7194H44.8034C45.226 39.7194 45.6274 39.9048 45.9013 40.225C46.1754 40.5453 46.2974 40.9703 46.2338 41.3901L16.1013 41.3878Z" fill="#7B3B96" stroke="white"/>
<g id="Group_2">
<path id="Vector_5" d="M48.0501 21.0382C50.2017 21.0382 51.946 19.2939 51.946 17.1422C51.946 14.9906 50.2017 13.2463 48.0501 13.2463C45.8984 13.2463 44.1541 14.9906 44.1541 17.1422C44.1541 19.2939 45.8984 21.0382 48.0501 21.0382Z" fill="#7B3B96"/>
</g>
<g id="Group_3">
<path id="Vector_6" d="M31.1675 20.2785C25.714 20.2785 21.2783 15.8428 21.2783 10.3892C21.2783 4.93572 25.714 0.5 31.1675 0.5C36.621 0.5 41.0568 4.93572 41.0568 10.3892C41.0568 15.8428 36.621 20.2785 31.1675 20.2785ZM31.1675 3.39597C27.3095 3.39597 24.1742 6.53414 24.1742 10.3892C24.1742 14.2444 27.3095 17.3825 31.1675 17.3825C35.0255 17.3825 38.1608 14.2444 38.1608 10.3892C38.1608 6.53414 35.0255 3.39597 31.1675 3.39597Z" fill="#7B3B96" stroke="white"/>
</g>
</g>
</svg>
