<svg width="60" height="60" viewBox="0 0 60 60" fill="none" xmlns="http://www.w3.org/2000/svg">
<g id="fast">
<path id="Vector" d="M32.9282 19.5471C31.309 17.928 28.6879 17.9279 27.0686 19.5471C25.4537 21.162 25.4536 23.7905 27.0689 25.4067C28.6844 27.0213 31.3128 27.0219 32.9282 25.4066C34.5472 23.7876 34.5475 21.1663 32.9282 19.5471ZM31.7563 24.2346C30.7874 25.2036 29.2102 25.2036 28.2407 24.2348C27.2716 23.2651 27.2716 21.6879 28.2406 20.719C29.212 19.7475 30.7847 19.7474 31.7563 20.719C32.7277 21.6903 32.7279 23.2631 31.7563 24.2346Z" fill="#7B3B96"/>
<path id="Vector_2" d="M29.3268 0.815583L29.3266 0.815717C29.1729 0.980872 25.4539 5.01097 22.476 11.2447L22.476 11.2447C20.0889 16.2375 18.8803 21.1749 18.8804 25.9203C18.8804 26.9847 18.9268 28.067 19.0176 29.1489L19.0247 29.233L18.943 29.2541C15.2416 30.2126 13.8126 32.504 13.2665 34.3073C12.6363 36.3889 12.8849 38.8433 13.6509 41.1379C14.4167 43.4319 15.6955 45.5541 17.1102 46.9688C17.3735 47.2317 17.7693 47.3104 18.1129 47.168L18.113 47.168C18.2268 47.1209 18.3275 47.0526 18.4113 46.9688C18.5807 46.7994 18.6808 46.567 18.6809 46.3182C18.6809 46.3182 18.6809 46.3182 18.6809 46.3181L18.7809 46.3182C18.7809 43.4215 20.6579 41.7256 21.3182 41.2187L29.3268 0.815583ZM29.3268 0.815583C29.501 0.627679 29.7444 0.522538 30.0001 0.522473C30.2555 0.522554 30.4994 0.62872 30.6734 0.815702L30.7466 0.747585L29.3268 0.815583ZM17.0172 43.9309L17.1342 44.1087L17.1964 43.9052C18.0929 40.975 20.3863 39.4938 20.5015 39.4211L20.5015 39.421C20.6343 39.3371 20.7669 39.3024 20.8691 39.2883C20.9201 39.2813 20.9632 39.2794 20.9947 39.2791C21.0105 39.2789 21.0233 39.2791 21.0336 39.2793L21.0485 39.2794L21.0485 39.2794C21.0494 39.2794 21.0633 39.2796 21.0771 39.2763L21.1849 39.2508L21.1485 39.1462C20.2493 36.5582 19.6113 33.894 19.244 31.1962L19.2283 31.0811L19.1169 31.1138C16.9692 31.7419 15.5877 32.9908 15.0277 34.8401L15.0277 34.8401C14.6106 36.2178 14.6776 37.8347 15.0621 39.4313C15.4468 41.0288 16.1511 42.6135 17.0172 43.9309ZM29.92 56.9747L30.0002 57.0821L30.0803 56.9748C30.7107 56.1301 31.479 54.9922 32.0902 53.8152C32.6996 52.6414 33.1601 51.4154 33.1601 50.3987C33.1602 49.2752 32.9348 48.1957 32.5179 47.2967L32.491 47.2388L32.4272 47.2388L27.5733 47.2388L27.5094 47.2388L27.4826 47.2967C27.0657 48.1957 26.8404 49.2753 26.8404 50.3987C26.8404 51.4153 27.3008 52.6413 27.9102 53.8151C28.5214 54.992 29.2896 56.13 29.92 56.9747ZM34.1964 44.9241L34.1964 44.924C34.8671 43.7901 35.4898 42.5615 36.0558 41.2586L36.1166 41.1187L35.9641 41.1187L24.0364 41.1187L23.8839 41.1187L23.9447 41.2586C24.5106 42.5613 25.1334 43.7901 25.8043 44.9245L25.8043 44.9246C25.9809 45.2226 26.3377 45.3985 26.7255 45.3988H26.7256L30.4508 45.3989H30.4508L33.2757 45.3988H33.2758C33.6628 45.3985 34.0196 45.2225 34.1964 44.9241ZM42.8041 43.905L42.8664 44.1085L42.9833 43.9307C43.8495 42.6134 44.5537 41.0287 44.9384 39.4312C45.3228 37.8346 45.3899 36.2178 44.9728 34.8401C44.4129 32.991 43.0313 31.742 40.8836 31.1137L40.7721 31.0811L40.7564 31.1962C40.389 33.8941 39.751 36.5582 38.852 39.146L38.8156 39.2507L38.9234 39.2762C38.9358 39.2791 38.9476 39.2793 38.9507 39.2794L38.9511 39.2794C38.9563 39.2795 38.962 39.2795 38.967 39.2794C38.9779 39.2793 38.99 39.2791 39.0054 39.2792C39.0355 39.2794 39.0762 39.2808 39.1243 39.287C39.2207 39.2994 39.3471 39.3309 39.4787 39.4096L39.53 39.3238L39.4787 39.4096C40.7128 40.1477 42.2014 41.9352 42.8041 43.905ZM38.9558 39.0795C38.9541 39.0794 38.9543 39.0794 38.9559 39.0795L38.9558 39.0795ZM39.0655 29.8766L39.0655 29.8766C39.2078 28.5546 39.28 27.2234 39.2801 25.9201C39.2802 21.6301 38.2191 17.1581 36.1341 12.6195L36.1073 12.5612L36.0432 12.5612L23.9573 12.5612L23.8932 12.5612L23.8664 12.6195C21.7815 17.1583 20.7204 21.6303 20.7205 25.92C20.7204 27.2228 20.7927 28.5539 20.9351 29.8769L20.9351 29.877C21.2779 33.0539 22.0147 36.1914 23.1259 39.2137L23.15 39.2791L23.2198 39.2791L36.7808 39.279L36.8506 39.279L36.8747 39.2135C37.9858 36.1914 38.7226 33.0538 39.0655 29.8766ZM35.0411 10.7213L35.2066 10.7213L35.1296 10.5747C33.2323 6.96788 31.1582 4.25342 30.0775 2.9423L30.0003 2.84869L29.9232 2.9423C28.8426 4.25313 26.7684 6.96752 24.8709 10.5747L24.7938 10.7213L24.9594 10.7213L35.0411 10.7213ZM21.0468 39.0794L21.0467 39.0794C21.0491 39.0793 21.0496 39.0794 21.0468 39.0794Z" fill="#7B3B96" stroke="white" stroke-width="0.2"/>
</g>
</svg>
