<svg width="44" height="44" viewBox="0 0 44 44" fill="none" xmlns="http://www.w3.org/2000/svg">
<path id="Vector" d="M22 0C9.8692 0 0 9.8692 0 22C0 27.313 1.89347 32.1919 5.04093 35.9979C5.049 36.0089 5.04973 36.0228 5.05853 36.0331C7.33113 38.7735 10.1853 40.8745 13.3657 42.2319C13.4024 42.2473 13.4383 42.2642 13.475 42.2796C13.7324 42.3881 13.9927 42.4886 14.2538 42.5869C14.3565 42.6257 14.4591 42.6653 14.5633 42.7027C14.7884 42.7834 15.015 42.8597 15.2431 42.933C15.389 42.9799 15.5349 43.0261 15.6823 43.0701C15.884 43.1303 16.0864 43.1882 16.2903 43.2432C16.4692 43.2916 16.6496 43.3363 16.83 43.3796C17.0126 43.4236 17.1959 43.4676 17.38 43.5065C17.5853 43.5505 17.7929 43.5893 18.0011 43.6275C18.1683 43.6583 18.3348 43.6905 18.5035 43.7177C18.7345 43.7551 18.9669 43.7844 19.2001 43.8145C19.3505 43.8335 19.5001 43.8555 19.6511 43.8717C19.9151 43.8995 20.1813 43.9193 20.4483 43.9377C20.5722 43.9465 20.6954 43.9597 20.8201 43.9663C21.2095 43.9883 21.6033 44 22 44C22.3967 44 22.7905 43.9883 23.1814 43.9677C23.3061 43.9611 23.4293 43.9479 23.5532 43.9391C23.8201 43.9201 24.0863 43.901 24.3503 43.8731C24.5014 43.857 24.651 43.835 24.8013 43.8159C25.0345 43.7859 25.267 43.7565 25.498 43.7191C25.6659 43.692 25.8331 43.6597 26.0003 43.6289C26.2079 43.5908 26.4154 43.5519 26.6215 43.5079C26.8055 43.4683 26.9881 43.4251 27.1715 43.3811C27.3519 43.3371 27.5323 43.2923 27.7112 43.2447C27.9151 43.1904 28.1175 43.1317 28.3191 43.0716C28.4665 43.0276 28.6125 42.9814 28.7584 42.9345C28.9865 42.8611 29.2131 42.7849 29.4382 42.7042C29.5416 42.6668 29.6443 42.6272 29.7477 42.5883C30.0095 42.4901 30.2691 42.3889 30.5265 42.2811C30.5631 42.2657 30.5991 42.2488 30.6357 42.2334C33.8155 40.876 36.6703 38.775 38.9429 36.0345C38.9517 36.0243 38.9525 36.0096 38.9605 35.9993C42.1065 32.1919 44 27.313 44 22C44 9.8692 34.1308 0 22 0ZM30.9151 40.4947C30.9041 40.4998 30.8939 40.5057 30.8829 40.5108C30.6211 40.6369 30.3549 40.7557 30.0865 40.8716C30.0256 40.8973 29.9655 40.9237 29.9046 40.9493C29.6699 41.0476 29.4323 41.1407 29.1933 41.2302C29.0935 41.2676 28.9938 41.3043 28.8933 41.3395C28.6814 41.415 28.4687 41.4876 28.2539 41.5565C28.1204 41.5991 27.9862 41.6394 27.852 41.679C27.6613 41.7362 27.4699 41.7912 27.2763 41.8425C27.1135 41.8858 26.9493 41.9254 26.785 41.9643C26.6127 42.0053 26.4411 42.0471 26.2673 42.0838C26.0773 42.1241 25.8859 42.1586 25.6953 42.1931C25.5405 42.2217 25.3865 42.2517 25.2303 42.2767C25.0155 42.3104 24.7984 42.3375 24.5821 42.3647C24.4449 42.3823 24.3085 42.4028 24.1699 42.4175C23.9228 42.4439 23.6735 42.4607 23.4249 42.4783C23.3141 42.4857 23.2041 42.4981 23.0919 42.504C22.7289 42.5231 22.3652 42.5333 22 42.5333C21.6348 42.5333 21.2711 42.5231 20.9088 42.504C20.7973 42.4981 20.6873 42.4864 20.5759 42.4783C20.3265 42.4615 20.0779 42.4439 19.8308 42.4175C19.6922 42.4028 19.5558 42.3823 19.4187 42.3647C19.2023 42.3375 18.9853 42.3104 18.7704 42.2767C18.6142 42.2517 18.4602 42.2217 18.3055 42.1931C18.1141 42.1586 17.9227 42.1234 17.7335 42.0838C17.5597 42.0471 17.3873 42.0053 17.2157 41.9643C17.0515 41.9247 16.8872 41.8858 16.7244 41.8425C16.5315 41.7912 16.3394 41.7355 16.1487 41.679C16.0145 41.6394 15.8803 41.5991 15.7469 41.5565C15.532 41.4876 15.3186 41.415 15.1074 41.3395C15.0069 41.3035 14.9072 41.2669 14.8075 41.2302C14.5684 41.1407 14.3308 41.0476 14.0961 40.9493C14.0353 40.9244 13.9759 40.898 13.915 40.8723C13.6466 40.7572 13.3804 40.6377 13.1179 40.5115C13.1069 40.5064 13.0966 40.5013 13.0856 40.4954C10.527 39.2575 8.26687 37.5005 6.4328 35.3665C7.85033 30.1466 11.8631 25.9387 17.0258 24.2645C17.1277 24.3269 17.2341 24.3826 17.3389 24.4413C17.4005 24.4757 17.4614 24.5124 17.5237 24.5454C17.7423 24.6613 17.9637 24.7698 18.1903 24.8673C18.3641 24.9436 18.5438 25.0081 18.7227 25.0741C18.7579 25.0866 18.7931 25.1005 18.8283 25.113C19.8227 25.465 20.8868 25.6667 22 25.6667C23.1132 25.6667 24.1773 25.465 25.1709 25.113C25.2061 25.1005 25.2413 25.0866 25.2765 25.0741C25.4555 25.0081 25.6351 24.9436 25.8089 24.8673C26.0355 24.7698 26.257 24.6613 26.4755 24.5454C26.5379 24.5117 26.5987 24.4757 26.6603 24.4413C26.7652 24.3826 26.8723 24.3269 26.9749 24.2638C32.1376 25.9387 36.1497 30.1466 37.5679 35.3657C35.7339 37.499 33.4737 39.2561 30.9151 40.4947ZM13.9333 16.1333C13.9333 11.6857 17.5523 8.06667 22 8.06667C26.4477 8.06667 30.0667 11.6857 30.0667 16.1333C30.0667 18.9625 28.5993 21.4522 26.3883 22.8925C26.0993 23.0802 25.7987 23.2481 25.4899 23.3948C25.4533 23.4124 25.4173 23.4307 25.3807 23.4476C23.2569 24.4134 20.7431 24.4134 18.6193 23.4476C18.5827 23.4307 18.546 23.4124 18.5101 23.3948C18.2006 23.2481 17.9007 23.0802 17.6117 22.8925C15.4007 21.4522 13.9333 18.9625 13.9333 16.1333ZM38.6679 33.9702C37.0055 29.0613 33.2127 25.0939 28.3668 23.2093C30.305 21.4632 31.5333 18.942 31.5333 16.1333C31.5333 10.8768 27.2565 6.6 22 6.6C16.7435 6.6 12.4667 10.8768 12.4667 16.1333C12.4667 18.942 13.695 21.4632 15.6339 23.2093C10.7881 25.0947 6.99527 29.0613 5.3328 33.9702C2.90327 30.5976 1.46667 26.4645 1.46667 22C1.46667 10.6781 10.6781 1.46667 22 1.46667C33.3219 1.46667 42.5333 10.6781 42.5333 22C42.5333 26.4645 41.0967 30.5976 38.6679 33.9702Z" fill="#7B3B96"/>
</svg>
